<?xml version="1.0" encoding="UTF-8" standalone="no"?>
<!-- Created with Inkscape (http://www.inkscape.org/) -->

<svg
   xmlns:dc="http://purl.org/dc/elements/1.1/"
   xmlns:cc="http://creativecommons.org/ns#"
   xmlns:rdf="http://www.w3.org/1999/02/22-rdf-syntax-ns#"
   xmlns:svg="http://www.w3.org/2000/svg"
   xmlns="http://www.w3.org/2000/svg"
   xmlns:sodipodi="http://sodipodi.sourceforge.net/DTD/sodipodi-0.dtd"
   xmlns:inkscape="http://www.inkscape.org/namespaces/inkscape"
   version="1.1"
   id="svg73"
   width="546.1333"
   height="546.1333"
   viewBox="0 0 546.1333 546.1333"
   sodipodi:docname="camera_icon_change.svg"
   inkscape:version="0.92.3 (2405546, 2018-03-11)">
  <metadata
     id="metadata79">
    <rdf:RDF>
      <cc:Work
         rdf:about="">
        <dc:format>image/svg+xml</dc:format>
        <dc:type
           rdf:resource="http://purl.org/dc/dcmitype/StillImage" />
        <dc:title></dc:title>
      </cc:Work>
    </rdf:RDF>
  </metadata>
  <defs
     id="defs77" />
  <sodipodi:namedview
     pagecolor="#ffffff"
     bordercolor="#666666"
     borderopacity="1"
     objecttolerance="10"
     gridtolerance="10"
     guidetolerance="10"
     inkscape:pageopacity="0"
     inkscape:pageshadow="2"
     inkscape:window-width="1853"
     inkscape:window-height="1025"
     id="namedview75"
     showgrid="false"
     inkscape:zoom="1.5454102"
     inkscape:cx="273.06665"
     inkscape:cy="298.94975"
     inkscape:window-x="67"
     inkscape:window-y="27"
     inkscape:window-maximized="1"
     inkscape:current-layer="svg73" />
  <g
     id="g83"
     transform="translate(0,1.9412346)">
    <path
       style="fill:#cccccc;stroke-width:1.0666666"
       d="m 35.512795,492.78903 c -16.00933,-2.33911 -30.4604747,-14.89017 -33.9463587,-29.483 -2.21674084,-9.27986 -2.21674084,-294.3989 0,-303.67877 3.0221712,-12.6516 12.8563947,-22.93182 26.7760577,-27.99039 4.560022,-1.65718 10.493306,-1.9936 44.724168,-2.53598 37.263328,-0.59042 39.819928,-0.75702 45.794298,-2.984 16.77422,-6.25273 30.27594,-18.30165 38.52937,-34.383562 9.16394,-17.856082 24.94506,-30.895532 44.74299,-36.969744 5.9152,-1.814845 11.28844,-1.963587 70.93333,-1.963587 59.64489,0 65.01813,0.148742 70.93333,1.963587 19.79793,6.074212 35.57905,19.113662 44.74299,36.969744 8.25343,16.081912 21.75515,28.130832 38.52937,34.383562 5.97437,2.22698 8.53097,2.39358 45.7943,2.984 34.23085,0.54238 40.16414,0.8788 44.72417,2.53598 13.91966,5.05857 23.75388,15.33879 26.77606,27.99039 2.21673,9.27987 2.21673,294.39891 0,303.67877 -3.61302,15.12501 -17.71251,27.0587 -34.90713,29.54505 -8.12744,1.17525 -466.088835,1.1153 -474.146945,-0.0621 z M 299.3058,433.56628 c 55.59408,-11.33796 97.50487,-52.91237 109.39508,-108.51705 3.29397,-15.40433 3.29397,-39.49416 0,-54.89849 -11.833,-55.33715 -52.93568,-96.43392 -108.18498,-108.16944 -15.38547,-3.26803 -39.51303,-3.26803 -54.8985,0 -55.09834,11.70346 -96.92495,53.45373 -108.00076,107.80365 -1.18249,5.80259 -2.14998,11.03883 -2.14998,11.63611 0,0.62795 2.88217,1.06934 6.83358,1.04655 4.74747,-0.0274 7.83563,0.55251 10.11609,1.8996 5.3237,3.14479 6.51699,7.08816 6.51699,21.53624 0,12.20261 -0.10432,12.80834 -2.30578,13.38403 -1.26818,0.33164 -3.18818,0.13073 -4.26666,-0.44645 -1.30481,-0.69832 -2.66004,-0.67527 -4.05052,0.0689 -1.14929,0.61509 -4.14929,1.26762 -6.66667,1.45007 -4.3612,0.31609 -4.56553,0.48214 -4.33315,3.52124 0.90067,11.77919 12.57081,39.36997 22.65098,53.55193 22.36653,31.46789 58.15077,52.91284 96.34305,57.73695 10.46099,1.32134 32.73084,0.49073 43.00123,-1.60383 z M 213.06982,332.04466 c -4.37466,-0.48132 -6.70089,-3.25273 -5.61143,-6.68532 0.57555,-1.8134 1.40878,-1.96254 7.91636,-1.41696 6.46446,0.54195 7.52615,0.35668 9.54916,-1.66633 2.98803,-2.98803 2.94639,-4.76591 -0.0891,-3.80249 -4.01526,1.27439 -9.81702,0.83404 -13.39608,-1.01677 -10.38601,-5.37081 -10.36051,-27.95599 0.0376,-33.33308 3.75873,-1.94372 11.12264,-2.26478 14.27709,-0.62249 1.08891,0.56691 2.93216,0.68537 4.09613,0.26323 3.1052,-1.12616 5.60197,-0.14886 6.30385,2.46748 0.93118,3.47109 0.67953,27.24957 -0.34448,32.55009 -1.99418,10.3224 -9.52755,14.71624 -22.73917,13.26264 z m 10.50382,-21.39434 c 2.16759,-1.44735 3.62635,-5.40979 3.62635,-9.85034 0,-7.08305 -2.51369,-10.62051 -7.56801,-10.65033 -4.53711,-0.0268 -6.83199,3.55071 -6.83199,10.65033 0,4.57647 0.52627,6.75756 2.03199,8.42135 2.00847,2.21933 6.46658,2.94809 8.74166,1.42899 z m 32.0487,9.20629 c -9.63596,-2.19412 -13.95417,-8.685 -13.31409,-20.01293 0.64621,-11.43645 6.49927,-17.42319 17.03416,-17.42319 9.0083,0 14.8564,5.27716 16.23074,14.64616 1.00881,6.8772 0.1383,7.41822 -12.59931,7.83042 -12.16319,0.39362 -13.4263,1.1838 -8.98764,5.62246 2.31373,2.31373 2.59402,2.32553 16.94712,0.71332 2.30396,-0.2588 2.71214,0.17207 3.00097,3.16781 0.27105,2.8114 -0.13254,3.63947 -2.13334,4.37711 -4.19802,1.54771 -11.87208,2.05944 -16.17861,1.07884 z m 11.04431,-24.15262 c 0,-0.45614 -0.74722,-1.89614 -1.66048,-3.2 -2.17073,-3.09914 -8.15031,-3.22655 -11.13952,-0.23734 -3.51388,3.51388 -2.57288,4.26667 5.33333,4.26667 4.10667,0 7.46667,-0.3732 7.46667,-0.82933 z m 116.79999,23.68948 c -2.34666,-0.82209 -4.37433,-1.50193 -4.50594,-1.51076 -0.97029,-0.0651 -3.49406,-6.92241 -3.49406,-9.49365 0,-8.22691 4.7862,-12.35133 15.68794,-13.51881 6.70487,-0.71802 6.77935,-0.76128 4.89528,-2.84314 -1.59648,-1.7641 -2.79624,-2.01152 -7.24819,-1.49483 -11.54729,1.34018 -10.66836,1.50368 -10.66836,-1.9846 0,-2.44902 0.70164,-3.52191 3.03444,-4.64 4.43343,-2.12487 14.78157,-1.86413 18.7365,0.4721 5.30154,3.13169 6.49573,7.08866 6.49573,21.52367 0,12.20261 -0.10432,12.80834 -2.30579,13.38403 -1.26818,0.33164 -3.18818,0.13073 -4.26666,-0.44645 -1.18607,-0.63477 -2.69848,-0.67249 -3.82755,-0.0955 -3.6736,1.87739 -8.33582,2.11841 -12.53334,0.64794 z m 11.48491,-8.72682 c 0.92522,-1.02667 2.01165,-3.18667 2.41429,-4.8 0.72591,-2.90865 0.68687,-2.93334 -4.6407,-2.93334 -7.37218,0 -10.17244,2.76933 -7.62097,7.53679 1.42725,2.66685 7.51173,2.78829 9.84738,0.19655 z m -225.61823,8.59805 c -1.68153,-0.43943 -1.86666,-2.2132 -1.86666,-17.88519 0,-16.93403 0.0614,-17.41344 2.30578,-18.00036 1.26818,-0.33164 3.18818,-0.13073 4.26666,0.44645 1.32298,0.70804 2.68613,0.66131 4.19019,-0.14364 2.91026,-1.55753 10.81655,-1.52966 13.76542,0.0485 4.45949,2.38664 6.35617,8.97571 6.38185,22.17053 0.0223,11.45619 -0.09,12.07632 -2.33679,12.90747 -5.34253,1.97633 -5.88247,0.90194 -6.36629,-12.66806 -0.48823,-13.69381 -1.37065,-16.01818 -6.07076,-15.99078 -6.07498,0.0354 -7.60273,3.44 -7.60273,16.94267 0,9.48637 -0.23389,10.82444 -2.06321,11.80347 -1.13476,0.60731 -2.21476,1.04851 -2.4,0.98046 -0.18524,-0.0681 -1.17679,-0.34326 -2.20346,-0.61155 z m 133.33333,-0.41683 c -1.65003,-0.96105 -1.86667,-2.99552 -1.86667,-17.53003 0,-15.35112 0.14164,-16.5186 2.13333,-17.58452 1.51573,-0.81119 2.75095,-0.81119 4.26667,0 1.99183,1.06599 2.13333,2.2334 2.13333,17.59999 0,15.18013 -0.16022,16.54403 -2.06321,17.56248 -2.45549,1.31414 -2.26148,1.31616 -4.60345,-0.0479 z m 17.06666,0.41683 c -1.68153,-0.43943 -1.86666,-2.2132 -1.86666,-17.88519 0,-16.93403 0.0614,-17.41344 2.30578,-18.00036 1.26818,-0.33164 3.18818,-0.13073 4.26666,0.44645 1.31805,0.7054 2.6787,0.66527 4.15048,-0.12239 3.7542,-2.00919 10.50835,-1.51321 13.9396,1.02363 l 3.13042,2.31442 2.78071,-2.1873 c 3.40702,-2.67996 11.57696,-2.96341 15.06177,-0.52256 4.55093,3.1876 5.56457,6.94824 5.56457,20.64475 0,11.72376 -0.18172,12.91269 -2.13333,13.95716 -1.51572,0.81119 -2.75094,0.81119 -4.26667,0 -1.92339,-1.02936 -2.13333,-2.2334 -2.13333,-12.23475 0,-13.48017 -0.94152,-16.57153 -5.04027,-16.54891 -6.24652,0.0344 -7.75973,3.33843 -7.75973,16.94267 0,9.60759 -0.21767,10.81577 -2.13333,11.84099 -1.51572,0.81119 -2.75094,0.81119 -4.26667,0 -1.91089,-1.02267 -2.13333,-2.2334 -2.13333,-11.61169 0,-13.04245 -1.25035,-17.19461 -5.17102,-17.17197 -6.10365,0.0352 -7.62898,3.42275 -7.62898,16.94267 0,9.48637 -0.23389,10.82444 -2.06321,11.80347 -1.13476,0.60731 -2.21476,1.04851 -2.4,0.98046 -0.18524,-0.0681 -1.17679,-0.34326 -2.20346,-0.61155 z m -17.06666,-39.88349 c -2.62675,-1.52994 -2.45435,-6.99165 0.26666,-8.44789 1.51573,-0.81119 2.75095,-0.81119 4.26667,0 2.84969,1.52511 2.89475,6.9841 0.0701,8.4958 -2.4555,1.31415 -2.26148,1.31616 -4.60345,-0.0479 z M 147.4849,310.66665 c 0.92521,-1.02667 2.01165,-3.18667 2.41429,-4.8 0.72591,-2.90865 0.68687,-2.93334 -4.6407,-2.93334 -7.37218,0 -10.17244,2.76933 -7.62097,7.53679 1.42725,2.66685 7.51173,2.78829 9.84738,0.19655 z m 1.13831,-18.59534 c -3.41888,-3.77782 -15.55515,-1.61418 -13.97938,2.49223 0.4911,1.27978 1.86466,1.36262 8.16186,0.49225 7.22452,-0.99855 7.49104,-1.13527 5.81752,-2.98448 z"
       id="path97"
       inkscape:connector-curvature="0" />
    <path
       style="fill:#b0b0b0;stroke-width:1.0666666"
       d="M 29.333332,490.24599 C 19.628684,487.16599 12.060089,481.35378 6.5282208,472.73312 -0.30054743,462.09141 0,469.54178 0,310.90281 0,182.38376 0.18334434,166.16019 1.6941407,160.99359 5.0847404,149.39847 13.414469,139.69767 24.40532,134.54417 l 5.994678,-2.81084 39.466664,-0.65405 c 43.473028,-0.72045 44.527818,-0.86531 58.159658,-7.9879 13.66577,-7.14029 24.36787,-18.15457 31.14442,-32.052878 7.95584,-16.316974 25.15776,-30.180252 43.49591,-35.053997 8.67716,-2.306134 132.12284,-2.306134 140.8,0 18.33815,4.873745 35.54007,18.737023 43.49591,35.053997 6.77655,13.898308 17.47865,24.912588 31.14442,32.052878 13.63184,7.12259 14.68663,7.26745 58.15966,7.9879 l 39.46666,0.65405 5.99468,2.81084 c 10.99085,5.1535 19.32058,14.8543 22.71118,26.44942 1.51079,5.1666 1.69414,21.39017 1.69414,149.90922 0,126.72099 -0.19953,144.88168 -1.65315,150.46251 -3.06598,11.77108 -11.44329,21.72119 -22.75217,27.0238 l -5.99468,2.81085 -241.06665,0.20006 C 82.348133,491.55965 32.737199,491.32622 29.333332,490.24599 Z M 292.76059,435.71898 c 20.22777,-3.04875 37.61312,-9.32143 53.52784,-19.313 61.05211,-38.32969 83.33758,-114.21535 52.58856,-179.07266 -18.82883,-39.71465 -55.9212,-68.27356 -99.98654,-76.98366 -11.51045,-2.27518 -37.84944,-2.53368 -49.29047,-0.48374 -46.25453,8.28765 -85.52476,38.98832 -104.22613,81.48188 -4.86095,11.04513 -9.19396,26.06384 -10.45801,36.24863 l -0.76077,6.12977 6.25579,-0.59651 c 7.18845,-0.68544 12.09687,1.26055 15.75273,6.24534 1.89686,2.5864 2.18546,4.59016 2.20915,15.33825 0.0235,10.61947 -0.2355,12.53065 -1.83573,13.5505 -1.38506,0.88272 -2.39558,0.8547 -3.93911,-0.10926 -1.65945,-1.03634 -2.83076,-0.98126 -5.8361,0.27445 -2.06797,0.86406 -5.45538,1.57101 -7.52755,1.57101 -4.54699,0 -4.54497,-0.0224 -1.17093,12.94989 12.75039,49.02182 51.8713,87.70789 101.18744,100.06268 17.88797,4.48134 35.74223,5.38437 53.50983,2.70643 z M 210.32494,330.67152 c -1.74057,-0.74425 -2.37366,-1.7725 -2.13334,-3.46493 0.31898,-2.24642 0.7785,-2.38262 6.90347,-2.04627 7.45715,0.40953 10.67609,-0.86893 12.18582,-4.8398 1.37645,-3.62035 0.81519,-3.98172 -3.8123,-2.45451 -8.56072,2.82529 -16.34746,-2.0571 -18.66092,-11.70067 -3.51091,-14.63513 7.02552,-26.92555 19.0378,-22.207 2.81313,1.10503 4.64192,1.25431 6.30036,0.51429 1.67473,-0.74728 2.82173,-0.64014 4.04876,0.3782 1.47342,1.22283 1.66278,3.88986 1.35871,19.13558 -0.38105,19.10504 -1.00006,21.40864 -6.76844,25.18824 -3.13871,2.05655 -14.91735,3.01166 -18.45992,1.49687 z m 14.68221,-20.21204 c 4.14917,-4.14916 4.11328,-15.20572 -0.0629,-19.38189 -3.00993,-3.00993 -8.10982,-2.31641 -10.93735,1.48734 -3.1979,4.302 -2.96303,13.72931 0.43208,17.34324 3.00049,3.19387 7.68141,3.43806 10.56816,0.55131 z m 27.15768,7.5097 c -6.30229,-2.86219 -9.48399,-8.46467 -9.49194,-16.71376 -0.005,-5.25598 0.53615,-7.29751 2.86922,-10.82301 5.10689,-7.71702 15.81466,-9.86579 23.14668,-4.64493 3.19101,2.27219 6.51119,9.01372 6.51119,13.22076 0,4.29832 -1.88181,4.99174 -13.54666,4.99174 -10.27555,0 -10.98667,0.13808 -10.98667,2.13333 0,2.75526 3.41684,6.14606 7.13315,7.0788 1.6064,0.40319 5.55363,0.18081 8.77161,-0.49418 4.57924,-0.9605 6.03326,-0.94005 6.69006,0.0941 1.80172,2.83685 0.0273,4.98236 -5.10544,6.17299 -6.3501,1.47305 -11.18758,1.16574 -15.9912,-1.01582 z m 14.70808,-23.03586 c -0.88296,-5.75903 -9.11057,-7.726 -13.58807,-3.24848 -4.84915,4.84914 -3.66344,6.04427 5.64848,5.69334 7.58062,-0.28568 8.23952,-0.48858 7.93959,-2.44486 z m 115.4022,23.37782 c -3.92957,-1.93858 -5.7418,-5.41594 -5.7418,-11.01749 0,-7.59833 5.98114,-11.80685 16.8,-11.82105 3.28438,-0.004 4.53333,-0.43998 4.53333,-1.58136 0,-2.76238 -4.90554,-5.11019 -9.31915,-4.4602 -9.50521,1.39985 -9.34751,1.424 -9.34751,-1.43106 0,-2.094 0.80172,-2.94006 3.73333,-3.93979 8.18429,-2.79098 16.27605,-0.71306 20.69693,5.31484 1.89686,2.5864 2.18546,4.59016 2.20915,15.33825 0.0235,10.61947 -0.2355,12.53065 -1.83572,13.5505 -1.38507,0.88272 -2.39559,0.8547 -3.93912,-0.10926 -1.65944,-1.03634 -2.83076,-0.98126 -5.83609,0.27445 -4.74743,1.9836 -7.75375,1.95397 -11.95335,-0.11783 z m 11.48529,-5.86368 c 2.38066,-1.27409 5.6027,-7.95577 4.61056,-9.5611 -0.81951,-1.32598 -8.12717,-1.31308 -11.63488,0.0206 -2.1798,0.82875 -2.7361,1.76131 -2.7361,4.58666 0,1.95052 0.576,4.1224 1.28,4.8264 1.59152,1.59152 5.63136,1.65225 8.48042,0.12748 z m -225.08378,5.05853 c -0.88419,-1.0654 -1.17988,-6.14999 -0.97332,-16.73697 0.25579,-13.11079 0.55346,-15.36841 2.15967,-16.38008 1.36692,-0.86095 2.3938,-0.8419 3.85649,0.0716 1.56266,0.97589 3.0288,0.87268 6.78366,-0.47756 4.24174,-1.52532 5.25132,-1.54664 8.81831,-0.18609 6.48996,2.47544 8.01189,6.54965 8.01189,21.44792 0,11.63875 -0.14694,12.52474 -2.18452,13.17144 -4.3194,1.37092 -5.28214,-1.04276 -5.28214,-13.24285 0,-12.53062 -1.29661,-16.10673 -5.83992,-16.10673 -6.94323,0 -8.37515,2.77741 -9.07375,17.6 -0.51258,10.87585 -0.71573,11.75658 -2.77968,12.05147 -1.22466,0.17498 -2.79817,-0.37048 -3.49669,-1.21213 z m 133.2622,-0.57115 c -0.63818,-1.19246 -1.13884,-8.16522 -1.13884,-15.86086 0,-14.59548 0.94592,-17.93118 4.87051,-17.17538 1.93673,0.37298 2.06282,1.43959 2.06282,17.44933 0,16.71461 -0.0461,17.05861 -2.32782,17.38344 -1.46944,0.2092 -2.74778,-0.45328 -3.46667,-1.79653 z m 17.13779,0.57115 c -0.88419,-1.0654 -1.17988,-6.14999 -0.97332,-16.73697 0.25579,-13.11079 0.55346,-15.36841 2.15967,-16.38008 1.38146,-0.87011 2.41949,-0.82584 4.01608,0.17123 1.76495,1.10223 2.71752,1.05276 5.28404,-0.27444 4.43836,-2.29517 7.68671,-2.01663 12.19991,1.0461 l 3.92737,2.6652 3.24418,-2.39853 c 2.19019,-1.61927 4.74667,-2.39852 7.86887,-2.39852 8.82187,0 12.26323,6.69251 12.26323,23.84863 0,8.96433 -1.41973,12.38155 -4.8705,11.72304 -1.84926,-0.3529 -2.13113,-1.66249 -2.7225,-12.64932 -0.78931,-14.66423 -0.56135,-13.32432 -2.61652,-15.37949 -2.46516,-2.46516 -6.13888,-2.04491 -9.03046,1.03305 -2.2785,2.42534 -2.60536,3.96102 -3.11928,14.65548 -0.51503,10.71758 -0.78623,11.98677 -2.63689,12.34009 -3.76323,0.71847 -4.87051,-2.66879 -4.87051,-14.89916 0,-12.09606 -0.97404,-14.80565 -5.32228,-14.80565 -6.33501,0 -7.84184,3.11095 -8.52472,17.6 -0.51258,10.87585 -0.71573,11.75658 -2.77968,12.05147 -1.22466,0.17498 -2.79817,-0.37048 -3.49669,-1.21213 z m -17.17532,-40.10795 c -1.64681,-3.0771 0.38418,-6.70696 3.5042,-6.26278 1.88614,0.26851 2.32782,1.03976 2.32782,4.06472 0,3.02496 -0.44168,3.79622 -2.32782,4.06473 -1.48922,0.21201 -2.75162,-0.46046 -3.5042,-1.86667 z m -155.60754,35.04942 c 2.38066,-1.27409 5.6027,-7.95577 4.61056,-9.5611 -0.81951,-1.32598 -8.12717,-1.31308 -11.63488,0.0206 -2.17981,0.82875 -2.73611,1.76131 -2.73611,4.58666 0,1.95052 0.576,4.1224 1.28,4.8264 1.59152,1.59152 5.63136,1.65225 8.48043,0.12748 z m -0.43413,-16.98081 c 5.17734,0 6.09,-1.99363 2.16969,-4.73952 -4.85461,-3.4003 -14.69598,-1.01928 -14.69598,3.55556 0,2.8172 0.87125,3.22442 4.60658,2.15314 1.85863,-0.53305 5.4225,-0.96918 7.91971,-0.96918 z"
       id="path95"
       inkscape:connector-curvature="0" />
    <path
       style="fill:#8d8d8d;stroke-width:1.0666666"
       d="M 36.177742,490.68635 C 23.356645,489.03465 10.569486,479.9243 5.4583211,468.79997 4.1105766,465.86664 2.4511044,462.31393 1.7706049,460.90507 0.85035925,458.99985 0.5333333,420.59955 0.5333333,311.03841 V 163.73332 l 3.480121,-7.06511 c 6.8806837,-13.9687 17.4056257,-22.06786 31.7198767,-24.40908 3.52,-0.57574 21.279999,-1.05526 39.466664,-1.06562 24.938085,-0.0142 34.448085,-0.38658 38.686225,-1.51479 13.28504,-3.53654 28.82461,-13.41171 36.61658,-23.26928 2.27671,-2.88027 6.15378,-9.160679 8.61571,-13.956478 8.34386,-16.253771 25.02203,-30.04043 43.01481,-35.557294 5.91358,-1.813192 11.30478,-1.962338 70.93333,-1.962338 59.62855,0 65.01975,0.149146 70.93333,1.962338 17.99278,5.516864 34.67095,19.303523 43.01481,35.557294 2.46193,4.795799 6.339,11.076208 8.61571,13.956478 7.79197,9.85757 23.33154,19.73274 36.61658,23.26928 4.23814,1.12821 13.74814,1.50058 38.68622,1.51479 18.18667,0.0107 35.94667,0.48988 39.46667,1.06562 13.5328,2.21341 25.16281,10.70663 30.44616,22.23435 1.25361,2.73525 2.83607,6.12584 3.51657,7.53466 0.92019,1.90504 1.23727,40.20206 1.23727,149.43851 0,109.23645 -0.31708,147.53346 -1.23727,149.43851 -0.6805,1.40882 -2.33998,4.96148 -3.68773,7.89481 -5.2918,11.5175 -17.75183,20.14743 -31.68387,21.94454 -8.53218,1.10058 -464.253993,1.04452 -472.813358,-0.0581 z M 299.1888,435.77626 c 46.23367,-8.88597 86.7594,-42.02792 103.93302,-84.99645 6.30113,-15.76548 8.66123,-26.79749 9.55131,-44.6465 0.92272,-18.50372 0.0565,-28.83139 -3.64294,-43.43544 -18.09635,-71.43724 -89.30762,-116.7381 -162.01802,-103.06734 -53.27309,10.01622 -95.65399,49.57722 -109.82068,102.51352 -1.45107,5.42218 -2.96808,12.49794 -3.37115,15.72389 l -0.73283,5.86538 h 7.64255 c 14.37261,0 17.1366,3.60741 17.1366,22.36573 0,11.56812 -0.0416,11.7676 -2.45334,11.7676 -1.34933,0 -2.98888,-0.53555 -3.64344,-1.19011 -0.8757,-0.87571 -1.84015,-0.73481 -3.65068,0.53333 -1.5109,1.05828 -4.63319,1.72344 -8.08989,1.72344 -6.74556,0 -6.69147,-0.25141 -2.95028,13.71317 6.98858,26.08586 18.46962,45.96461 37.42613,64.80113 21.98527,21.84611 51.05777,35.96265 82.16729,39.89742 9.91495,1.25406 32.08554,0.436 42.51635,-1.56877 z M 209.45239,329.06665 c -1.29935,-3.38605 0.29669,-4.66217 4.61044,-3.68632 4.99814,1.13067 8.6532,0.3546 11.80382,-2.50627 2.97265,-2.69927 3.39091,-7.81679 0.53334,-6.52544 -1.02667,0.46396 -4.27378,1.03318 -7.21581,1.26496 -4.33505,0.34153 -5.92674,-0.033 -8.39593,-1.97519 -3.96642,-3.11998 -5.98826,-8.12995 -5.98826,-14.83841 0,-6.70846 2.02184,-11.71843 5.98826,-14.83841 2.61935,-2.06038 3.87207,-2.30694 8.92926,-1.75747 3.23536,0.35152 7.95285,0.62266 10.48331,0.60252 l 4.60083,-0.0366 -0.33417,19.29939 -0.33416,19.29939 -3.98433,3.64893 c -3.79962,3.47973 -4.35752,3.64891 -12.03348,3.64891 -6.17081,0 -8.19242,-0.37338 -8.66312,-1.6 z M 226.0559,309.7228 c 1.65238,-2.10066 2.21075,-4.35431 2.21075,-8.92282 0,-8.0614 -2.64299,-11.73333 -8.44543,-11.73333 -6.14285,0 -8.0879,2.82173 -8.0879,11.73333 0,8.91161 1.94505,11.73333 8.0879,11.73333 3.07664,0 4.54437,-0.66163 6.23468,-2.81051 z m 24.50182,6.78926 c -4.74139,-3.16747 -7.35442,-8.56047 -7.35442,-15.17875 0,-10.70628 6.48007,-17.59999 16.54391,-17.59999 8.76761,0 14.38611,5.81152 14.38611,14.88036 v 4.31963 l -10.93334,0.0163 c -12.6584,0.0189 -14.14162,0.55355 -12.62228,4.54972 2.10834,5.54535 7.50009,7.28957 17.42228,5.63607 4.72804,-0.78791 5.06667,-0.6919 5.06667,1.43651 0,3.02327 -3.73641,4.36137 -12.17837,4.36137 -5.19639,0 -7.52211,-0.5451 -10.33056,-2.42126 z m 16.81747,-19.51737 c 1.59795,-4.16416 -4.12334,-8.87517 -9.77521,-8.04908 -4.40484,0.64383 -8.56472,6.66743 -6.22221,9.00992 0.3911,0.39112 4.00617,0.71112 8.03347,0.71112 5.66484,0 7.4676,-0.37848 7.96395,-1.67196 z m 113.80913,20.38111 c -3.14174,-2.20057 -5.01843,-7.34953 -4.22339,-11.58745 1.01895,-5.4315 4.87121,-8.41445 11.53757,-8.93398 10.77815,-0.83997 12.79052,-2.2191 8.56814,-5.87197 -2.77698,-2.40242 -5.97233,-2.87189 -11.50927,-1.69097 -6.37028,1.35865 -8.76312,-0.34872 -4.90589,-3.50049 3.19493,-2.61062 13.69214,-2.83104 18.41883,-0.38678 4.86481,2.51569 6.263,7.13575 6.263,20.69489 0,11.56812 -0.0416,11.7676 -2.45333,11.7676 -1.34934,0 -2.98889,-0.53555 -3.64345,-1.19011 -0.8757,-0.87571 -1.84015,-0.73481 -3.65068,0.53333 -3.07791,2.15586 -11.42323,2.25201 -14.40153,0.16593 z m 16.24613,-8.23033 c 0.89777,-1.7361 1.48319,-4.20406 1.30092,-5.48435 -0.2991,-2.10095 -0.89281,-2.30376 -6.09206,-2.08106 -6.32563,0.27093 -9.71644,2.38874 -9.68967,6.05191 0.0544,7.43647 10.83523,8.56326 14.48081,1.5135 z m -228.89713,-7.74131 v -16.60418 h 2.45334 c 1.34933,0 2.98888,0.53555 3.64344,1.19011 0.8757,0.87571 1.84015,0.73481 3.65068,-0.53333 1.3533,-0.94789 4.55068,-1.72344 7.10527,-1.72344 9.35548,0 12.53849,6.9341 11.75131,25.59999 -0.33058,7.83883 -0.39647,8.0068 -3.27071,8.33752 l -2.93333,0.33751 v -10.77177 c 0,-6.99328 -0.54215,-12.06932 -1.54557,-14.47085 -1.38867,-3.32355 -1.96745,-3.69907 -5.70135,-3.69907 -6.86332,0 -8.12466,2.35942 -8.75308,16.37317 l -0.53333,11.89349 -2.93333,0.33752 -2.93334,0.33751 z m 133.83039,15.1526 c -0.30804,-0.80273 -0.42589,-8.15639 -0.26189,-16.34148 l 0.29816,-14.88196 h 2.66667 2.66666 v 15.99999 c 0,15.78991 -0.0316,16.00448 -2.40476,16.34149 -1.32263,0.1878 -2.6568,-0.31531 -2.96484,-1.11804 z m 16.5696,-15.1526 v -16.60418 h 2.45334 c 1.34933,0 2.98888,0.53555 3.64344,1.19011 0.8757,0.87571 1.84015,0.73481 3.65068,-0.53333 3.7903,-2.65484 9.79151,-2.19804 13.63736,1.03804 l 3.28185,2.76149 3.28184,-2.76149 c 6.81328,-5.733 17.0534,-2.34526 18.61394,6.15807 0.33786,1.8409 0.46952,8.14711 0.29258,14.01378 -0.3191,10.58088 -0.34315,10.66666 -2.98836,10.66666 -2.66057,0 -2.66788,-0.0283 -3.2,-12.37539 -0.59554,-13.81882 -1.49522,-15.89127 -6.89863,-15.89127 -6.05427,0 -7.42549,2.79486 -8.0347,16.37662 -0.53062,11.82938 -0.54695,11.89004 -3.2,11.89004 -2.66057,0 -2.66789,-0.0283 -3.2,-12.37539 -0.59555,-13.81882 -1.49523,-15.89127 -6.89863,-15.89127 -6.05647,0 -7.42561,2.79005 -8.03471,16.37317 l -0.53333,11.89349 -2.93333,0.33752 -2.93334,0.33751 z M 302.28109,276.8748 c -1.06205,-2.76765 0.42654,-5.05514 3.04746,-4.68297 1.76291,0.25034 2.40476,1.05324 2.40476,3.00815 0,1.95492 -0.64185,2.75782 -2.40476,3.00815 -1.44244,0.20482 -2.66197,-0.32874 -3.04746,-1.33333 z M 149.9638,309.14547 c 0.89777,-1.7361 1.48319,-4.20406 1.30092,-5.48435 -0.2991,-2.10095 -0.89281,-2.30376 -6.09206,-2.08106 -6.32563,0.27093 -9.71644,2.38874 -9.68967,6.05191 0.0544,7.43647 10.83523,8.56326 14.48081,1.5135 z m -0.89714,-13.2316 c 6.06538,-1.23296 0.4156,-7.2196 -6.71169,-7.11186 -6.02716,0.0911 -10.08831,2.58119 -10.08831,6.1856 0,2.64949 0.06,2.66654 7.2,2.04296 3.96,-0.34585 8.28,-0.84837 9.6,-1.1167 z"
       id="path93"
       inkscape:connector-curvature="0" />
    <path
       style="fill:#7d7d7d;stroke-width:1.0666666"
       d="M 26.940758,487.33928 C 19.113651,484.3309 10.001247,475.70609 6.2319142,467.73855 c -1.6666273,-3.52289 -3.0379603,-7.36524 -3.0474066,-8.53858 -0.012547,-1.55847 -0.2577766,-1.75388 -0.910064,-0.72513 -0.5751359,0.90706 -1.1354169,-0.61132 -1.57439468,-4.26667 -0.88990759,-7.41021 -0.88990759,-278.07283 0,-285.48305 0.43897778,-3.65535 0.99925878,-5.17373 1.57439468,-4.26667 0.6522874,1.02875 0.8975171,0.83335 0.910064,-0.72513 0.037903,-4.70796 6.1237564,-14.98597 12.1167954,-20.46327 10.961142,-10.01787 11.996003,-10.21313 58.298693,-11.0003 33.556084,-0.57046 40.740424,-0.96512 44.596144,-2.44974 18.58185,-7.15481 33.74069,-20.20611 41.7592,-35.953349 8.11612,-15.938922 19.14459,-26.317677 35.54514,-33.451098 l 7.69951,-3.3489 h 69.86666 69.86666 l 8,3.477836 c 10.04037,4.364844 20.96508,12.36961 26.5851,19.479464 2.37812,3.008554 6.33815,9.393931 8.80008,14.18973 5.85237,11.400347 18.30153,24.051067 29.352,29.827197 14.87181,7.77356 12.84727,7.48057 56.86281,8.22886 46.30269,0.78717 47.33756,0.98243 58.2987,11.0003 5.99303,5.4773 12.07889,15.75531 12.11679,20.46327 0.0126,1.55848 0.25778,1.75388 0.91007,0.72513 0.57513,-0.90706 1.13541,0.61132 1.57439,4.26667 0.88991,7.41022 0.88991,278.07284 0,285.48305 -0.43898,3.65535 -0.99926,5.17373 -1.57439,4.26667 -0.65229,-1.02875 -0.89752,-0.83334 -0.91007,0.72513 -0.01,1.17334 -1.38078,5.01569 -3.0474,8.53858 -3.87126,8.18299 -12.88219,16.61115 -21.01166,19.65278 l -5.90313,2.20864 -240.22663,-0.0556 C 34.559036,489.48928 32.486172,489.47069 26.940758,487.33928 Z M 299.44217,436.82851 c 56.3245,-10.92046 100.93125,-55.01237 112.25751,-110.96186 2.78882,-13.77625 2.82935,-43.36216 0.0774,-56.53333 -6.02368,-28.8305 -20.04495,-53.93907 -41.54795,-74.40197 -19.71374,-18.76017 -42.34762,-30.43258 -71.02919,-36.63009 -12.81926,-2.76999 -40.45058,-2.57616 -53.86666,0.37788 -50.54273,11.1288 -89.5519,45.2755 -106.01131,92.79709 -3.83738,11.07925 -7.49137,27.60537 -6.84534,30.95971 0.29879,1.55131 1.67987,1.83071 9.04907,1.83071 7.75045,0 8.99818,0.28314 11.46996,2.60278 3.90408,3.66379 5.05198,8.65855 4.66957,20.31836 -0.29231,8.91247 -0.57144,10.16699 -2.33746,10.50496 -1.10304,0.21109 -2.39467,-0.24586 -2.87029,-1.01544 -0.69907,-1.13109 -1.59925,-1.049 -4.69735,0.42839 -2.1079,1.00518 -6.27077,1.82761 -9.25081,1.82761 h -5.41826 l 0.74753,5.06667 c 1.26732,8.58983 7.96701,27.77826 13.45868,38.5467 12.88095,25.25788 36.90585,49.06878 62.30268,61.74775 12.82991,6.40512 31.02203,11.91878 46.48988,14.09013 9.46418,1.32855 32.79311,0.49121 43.3523,-1.55605 z m -89.04218,-106.8683 c -0.73334,-0.2959 -1.33334,-1.49255 -1.33334,-2.65921 0,-1.93576 0.48954,-2.06063 5.6,-1.42838 7.42495,0.91858 11.15881,-0.60863 13.15219,-5.37948 2.0461,-4.89697 1.16155,-6.25036 -2.75975,-4.22258 -6.45627,3.33867 -13.86877,1.15497 -17.70274,-5.21515 -1.40903,-2.34111 -1.99947,-5.36946 -1.99947,-10.25543 0,-7.82957 2.09879,-12.45507 6.95226,-15.32209 3.5695,-2.10855 9.1368,-2.19709 12.73998,-0.20258 1.86236,1.03089 3.23349,1.15366 4.61669,0.4134 4.54326,-2.43149 5.00094,-0.88022 4.99919,16.94447 -0.002,19.27013 -1.05556,22.96327 -7.46501,26.16515 -3.52782,1.76233 -13.58769,2.45808 -16.8,1.16188 z m 15.35735,-18.62415 c 2.18617,-1.81436 3.80411,-9.22906 3.02286,-13.8532 -0.89844,-5.3178 -3.36987,-8.24039 -7.67082,-9.07112 -2.8655,-0.55347 -3.9528,-0.13245 -6.66666,2.5814 -2.90994,2.90995 -3.24273,3.91639 -3.24273,9.80684 0,5.89045 0.33279,6.8969 3.24273,9.80684 2.69277,2.69276 3.80621,3.13004 6.56501,2.57828 1.82724,-0.36545 3.96457,-1.19751 4.74961,-1.84904 z m 25.62679,5.41802 c -7.68692,-4.18578 -10.3666,-15.51256 -5.78414,-24.44916 3.95736,-7.71757 13.52984,-10.86904 21.10917,-6.94962 3.9035,2.01858 7.6587,9.12224 7.21922,13.65652 l -0.3284,3.38816 -11.18678,0.30679 c -6.15272,0.16872 -11.62202,0.74201 -12.15398,1.27398 -1.57409,1.57409 1.48867,7.43864 4.77137,9.1362 3.5917,1.85733 7.95441,1.97847 12.62437,0.35051 2.55297,-0.88996 3.75117,-0.888 4.64679,0.007 2.40501,2.40501 -1.78424,4.63637 -9.54231,5.0826 -5.91082,0.33998 -8.06642,-0.002 -11.37531,-1.8036 z m 16.64728,-19.42076 c 0.6991,-1.95882 -2.11095,-6.95343 -4.68812,-8.33269 -2.83567,-1.51761 -8.7022,-0.4533 -10.76806,1.95355 -2.04077,2.3776 -3.14627,5.50611 -2.38242,6.74206 0.95592,1.54672 17.27555,1.2147 17.8386,-0.36292 z m 112.98792,18.95421 c -3.90462,-3.28551 -4.96732,-8.00416 -2.91101,-12.92561 1.88227,-4.50488 6.75789,-6.8286 14.32777,-6.8286 5.65686,0 7.01824,-0.94467 5.99726,-4.1615 -1.29857,-4.09144 -7.82326,-5.15189 -16.39375,-2.66445 -2.16165,0.6274 -2.4457,0.39276 -2.13333,-1.7621 0.44677,-3.08186 5.55653,-4.63783 12.92851,-3.93684 9.75888,0.92795 12.83665,6.72937 12.29714,23.17936 -0.29231,8.91247 -0.57144,10.16699 -2.33746,10.50496 -1.10304,0.21109 -2.39467,-0.24586 -2.87029,-1.01544 -0.69906,-1.13109 -1.59924,-1.049 -4.69735,0.42839 -5.49789,2.62176 -10.45889,2.33607 -14.20749,-0.81817 z m 14.86461,-4.80742 c 2.47477,-2.47475 3.11165,-3.96389 2.85129,-6.66667 -0.33517,-3.4792 -0.33686,-3.48011 -6.32913,-3.45981 -7.14377,0.0242 -9.47279,1.61 -9.47279,6.44981 0,6.92195 7.55928,9.06802 12.95063,3.67667 z m -226.88226,5.00183 c -0.29225,-0.76158 -0.39719,-8.07561 -0.23319,-16.2534 0.27224,-13.5755 0.4726,-14.9022 2.30368,-15.25359 1.10304,-0.21168 2.39467,0.24479 2.87029,1.01437 0.69907,1.13109 1.59925,1.049 4.69735,-0.42839 4.68683,-2.235 8.25446,-2.31629 12.19624,-0.27792 4.56361,2.35994 5.54225,6.09073 5.20096,19.82726 -0.28351,11.4107 -0.44547,12.22304 -2.43702,12.22304 -1.98321,0 -2.17087,-0.88888 -2.66667,-12.63138 -0.49238,-11.66159 -0.72666,-12.78764 -3.0515,-14.66666 -3.02401,-2.44412 -4.62625,-2.53251 -8.60554,-0.47474 -4.08624,2.11308 -4.53522,3.58085 -5.15105,16.83945 -0.48185,10.374 -0.72602,11.46667 -2.5624,11.46667 -1.11639,0 -2.26891,-0.62312 -2.56115,-1.38471 z m 133.33332,0 c -0.29225,-0.76158 -0.39718,-8.07561 -0.23318,-16.2534 0.27223,-13.5755 0.47259,-14.9022 2.30368,-15.25359 1.10304,-0.21168 2.41569,0.26236 2.917,1.05342 1.03371,1.63114 1.28891,27.56538 0.29669,30.15103 -0.77948,2.0313 -4.53823,2.2465 -5.28419,0.30254 z m 17.06667,0 c -0.29225,-0.76158 -0.39719,-8.07561 -0.23319,-16.2534 0.27224,-13.5755 0.4726,-14.9022 2.30368,-15.25359 1.10304,-0.21168 2.39467,0.24479 2.87029,1.01437 0.69907,1.13109 1.59925,1.049 4.69735,-0.42839 5.36548,-2.55862 9.44506,-2.29161 13.19481,0.86359 l 3.19832,2.69121 3.9657,-2.69121 c 5.42836,-3.68378 10.42315,-3.56684 14.32537,0.33538 3.60518,3.60518 4.54563,8.56783 4.07341,21.49495 -0.28744,7.8688 -0.59346,9.10509 -2.33628,9.43828 -3.18242,0.60842 -3.8274,-1.73339 -3.84482,-13.95982 -0.0143,-10.0315 -0.28334,-11.73367 -2.14967,-13.59999 -2.42953,-2.42954 -4.13049,-2.63565 -7.83219,-0.94905 -3.87051,1.76353 -4.96604,5.32417 -4.98414,16.19923 -0.0176,10.60438 -0.73582,12.9038 -3.84482,12.31003 -1.79804,-0.34342 -2.06068,-1.74281 -2.53884,-13.52775 -0.46868,-11.55105 -0.79198,-13.33588 -2.66667,-14.72149 -2.27131,-1.67875 -7.2456,-1.26495 -9.74674,0.81082 -2.31485,1.92115 -3.57432,8.35037 -3.58064,18.2782 -0.005,8.66835 -0.16034,9.33334 -2.17276,9.33334 -1.19175,0 -2.40593,-0.62312 -2.69817,-1.38471 z m -17.14928,-39.68196 c -0.93611,-2.43945 0.37529,-4.8 2.66666,-4.8 2.29136,0 3.60278,2.36055 2.66667,4.8 -0.3377,0.88 -1.5377,1.6 -2.66667,1.6 -1.12898,0 -2.32898,-0.72 -2.66666,-1.6 z m -153.8351,34.68013 c 2.47476,-2.47475 3.11165,-3.96389 2.85129,-6.66667 -0.33517,-3.4792 -0.33687,-3.48011 -6.32913,-3.45981 -7.14377,0.0242 -9.47279,1.61 -9.47279,6.44981 0,6.92195 7.55928,9.06802 12.95063,3.67667 z M 143.46666,296.853 c 7.25266,-0.62518 8.49549,-1.34482 7.53715,-4.36426 -2.15522,-6.7905 -19.80382,-4.74848 -19.80382,2.29139 0,3.22387 1.05438,4.16761 3.70621,3.31729 1.18826,-0.38101 5.04046,-0.94101 8.56046,-1.24442 z"
       id="path91"
       inkscape:connector-curvature="0" />
    <path
       style="fill:#505050;stroke-width:1.0666666"
       d="m 418.93331,330.58121 c -1.02667,-0.59798 -1.86667,-2.3193 -1.86667,-3.82517 0,-2.72552 0.0304,-2.73466 6.71172,-2.01915 5.87634,0.6293 7.07121,0.43599 9.6,-1.55317 1.58856,-1.24954 2.88828,-3.18519 2.88828,-4.30142 0,-1.73781 -0.39327,-1.87999 -2.73611,-0.98925 -6.84026,2.60067 -14.8507,-0.21278 -18.0121,-6.32626 -2.10536,-4.0713 -2.17147,-15.99157 -0.11598,-20.91104 2.32855,-5.57303 7.36243,-8.2621 13.93086,-7.44182 2.93333,0.36632 7.49333,0.75304 10.13333,0.85938 l 4.8,0.19334 0.29376,17.47392 c 0.26636,15.84327 0.0878,17.89947 -1.91381,22.03416 -1.43978,2.9742 -3.45295,5.15122 -5.7883,6.25942 -4.01295,1.90427 -15.01813,2.24014 -17.92498,0.54706 z m 14.85607,-20.60691 c 2.66073,-2.28867 2.97504,-3.25793 2.97504,-9.17432 0,-5.91638 -0.31431,-6.88565 -2.97504,-9.17431 -3.78415,-3.25499 -6.54032,-3.23841 -9.83789,0.0592 -2.20666,2.20662 -2.61818,3.63931 -2.61818,9.11511 0,5.4758 0.41152,6.90849 2.61818,9.11515 3.29757,3.29758 6.05374,3.31415 9.83789,0.0592 z m -221.52273,19.79685 c -1.46666,-0.44038 -2.66666,-1.49904 -2.66666,-2.35259 0,-1.2311 1.37501,-1.47668 6.65144,-1.18798 6.20169,0.33933 6.86887,0.14653 9.86667,-2.85128 1.91225,-1.91225 3.21522,-4.32913 3.21522,-5.96394 0,-3.24654 0.0685,-3.23552 -6.25684,-1.0077 -4.51491,1.59018 -5.28767,1.59573 -8.9198,0.0642 -5.77327,-2.4344 -8.28205,-7.18169 -8.28205,-15.67186 0,-8.49016 2.50878,-13.23746 8.28205,-15.67186 3.64205,-1.53573 4.40235,-1.52686 9.03619,0.1055 3.67088,1.29315 5.61629,1.48438 7.08799,0.69675 3.97227,-2.12588 4.64367,0.7865 4.23355,18.36402 -0.40843,17.50508 -1.13886,20.10672 -6.66103,23.72498 -2.9305,1.92014 -11.7316,2.90926 -15.58673,1.75175 z m 13.94741,-18.92377 c 2.21638,-2.35924 2.58593,-3.79507 2.58593,-10.0474 0,-6.25233 -0.36955,-7.68816 -2.58593,-10.0474 -1.78806,-1.90329 -3.69545,-2.7526 -6.18183,-2.7526 -6.78736,0 -11.10482,7.63752 -9.4136,16.65251 1.57839,8.41353 10.26828,11.86537 15.59543,6.19489 z M 61.0055,318.55952 c -8.172283,-2.96087 -14.07217,-12.64277 -14.07217,-23.09287 0,-10.4501 5.899887,-20.132 14.07217,-23.09287 10.108585,-3.66242 24.327828,0.23137 24.327828,6.6619 0,3.70281 -1.493754,3.91101 -7.011347,0.97728 -5.516909,-2.93336 -8.353315,-3.2719 -12.919212,-1.54193 -5.044969,1.91149 -7.637639,5.19541 -8.899069,11.27167 -3.618857,17.43195 7.879799,28.69384 21.710484,21.26344 5.618455,-3.01846 7.119144,-2.83054 7.119144,0.89147 0,6.43054 -14.219243,10.32432 -24.327828,6.66191 z m 400.32781,10e-4 c -9.45943,-4.40045 -12.91341,-16.13452 -7.73334,-26.27215 3.21036,-6.2828 6.93696,-8.80596 13.82243,-9.35871 4.63655,-0.37221 6.31077,-0.004 9.37757,2.06317 4.80876,3.24111 7.59964,8.72898 7.22507,14.20708 l -0.29174,4.26667 -12,0.3016 c -13.27076,0.33353 -14.09167,0.88281 -9.42381,6.30559 2.66346,3.0942 4.26176,3.29906 17.15715,2.1991 2.54021,-0.21668 3.2656,0.18614 3.51814,1.95372 0.17498,1.22466 -0.44241,2.85786 -1.37198,3.62934 -2.47177,2.05139 -16.34796,2.53351 -20.27949,0.70459 z m 14.39999,-23.01775 c 0,-4.44045 -5.81445,-7.41938 -10.60693,-5.43427 -2.92561,1.21183 -5.87196,5.59029 -4.6106,6.85166 0.35187,0.35186 3.91975,0.63975 7.92865,0.63975 6.48779,0 7.28888,-0.22609 7.28888,-2.05714 z M 92.210816,317.57242 c -0.287224,-0.74849 -0.392159,-11.42849 -0.233191,-23.73333 l 0.289036,-22.37244 2.606903,-0.36797 c 3.676498,-0.51894 5.393096,2.39844 5.393096,9.16565 0,5.70125 0.009,5.71689 2.37067,4.0628 5.02542,-3.51994 13.48102,-1.55545 16.84212,3.91293 1.89874,3.08917 2.11473,5.03558 1.86716,16.82659 l -0.27995,13.33333 h -3.2 -3.2 l -0.53333,-13.15427 c -0.46329,-11.42656 -0.80528,-13.35291 -2.60388,-14.66667 -3.01506,-2.2023 -5.67702,-1.8618 -8.64461,1.1058 -2.41658,2.41657 -2.61818,3.40756 -2.61818,12.87012 0,5.63856 -0.496888,11.18038 -1.104196,12.31514 -1.246956,2.32997 -6.137465,2.82405 -6.951648,0.70232 z m 43.255844,0.42048 c -5.01303,-0.88568 -8.12356,-6.7328 -6.74812,-12.68495 1.15764,-5.00959 5.48514,-7.33901 15.76866,-8.48802 4.17707,-0.46671 7.52484,-1.38129 7.77109,-2.12298 0.23794,-0.71667 -0.83758,-2.57322 -2.39004,-4.12568 -2.52665,-2.52665 -3.40183,-2.76286 -8.34545,-2.25251 -3.03755,0.31357 -6.64497,0.91715 -8.01651,1.34125 -2.18372,0.67527 -2.4489,0.4544 -2.13334,-1.77675 0.31838,-2.25101 1.09851,-2.63968 6.69532,-3.33574 8.62419,-1.07256 13.98927,0.48767 16.64305,4.84 1.7351,2.84568 2.08135,5.39512 2.08468,15.34951 0.004,12.44988 -0.7856,14.67633 -4.13176,11.64809 -1.71035,-1.54784 -2.21885,-1.51165 -6.025,0.42883 -4.31789,2.2014 -4.98621,2.27192 -11.17258,1.17895 z m 13.31802,-6.07721 c 2.67717,-2.8887 4.37873,-8.16658 3.2314,-10.02302 -0.37143,-0.60098 -3.30881,-1.09269 -6.52752,-1.09269 -4.85093,0 -6.31765,0.46544 -8.57255,2.72034 -2.1095,2.10952 -2.56454,3.36696 -2.02646,5.6 1.47053,6.10285 9.35909,7.68984 13.89513,2.79537 z m 105.87186,5.54602 c -5.04349,-1.86637 -6.89951,-3.40613 -8.99859,-7.46532 -2.12,-4.09963 -2.06799,-13.32711 0.0988,-17.5171 3.61464,-6.98994 12.03732,-10.27033 18.9079,-7.36408 4.76635,2.01616 6.87924,4.58374 8.36587,10.16619 1.87085,7.0253 0.8586,7.65191 -12.36111,7.65191 h -11.0694 v 2.74872 c 0,1.64002 1.30809,4.05681 3.24304,5.99176 3.02408,3.02407 3.65426,3.20859 9.33334,2.7329 3.34966,-0.28058 6.93029,-0.86821 7.95696,-1.30588 1.4208,-0.60567 1.86666,-0.28618 1.86666,1.33759 0,2.49636 -1.36306,3.14527 -8.25367,3.92929 -3.10936,0.35379 -6.6351,0.002 -9.08977,-0.90598 z m 13.72077,-20.29878 c 0.75232,-1.96053 -2.2096,-7.65018 -4.42511,-8.50036 -0.94969,-0.36442 -3.30199,-0.66259 -5.22733,-0.66259 -4.2118,0 -9.12489,4.38574 -9.12489,8.14545 0,2.4535 0.24444,2.52122 9.10014,2.52122 6.84609,0 9.24308,-0.37247 9.67719,-1.50372 z m 114.90666,20.21544 c -4.08948,-1.77889 -5.68399,-4.48795 -5.68399,-9.65698 0,-5.99606 4.34931,-9.73589 12.35185,-10.62095 3.47315,-0.38413 6.99504,-0.78886 7.82642,-0.89943 2.65717,-0.35337 2.46337,-2.72302 -0.46194,-5.64832 -2.69655,-2.69656 -3.2166,-2.80636 -10.21212,-2.1562 -7.09324,0.65925 -8.88341,-0.009 -6.03755,-2.25362 2.27711,-1.79604 10.32967,-2.51073 14.78174,-1.3119 6.8655,1.84868 8.40946,5.5013 8.41427,19.90606 0.004,12.44988 -0.7856,14.67633 -4.13176,11.64809 -1.71035,-1.54784 -2.21885,-1.51165 -6.02499,0.42883 -4.85659,2.47604 -6.25918,2.54919 -10.82193,0.56442 z m 12.96737,-5.46268 c 2.67716,-2.8887 4.37873,-8.16658 3.23139,-10.02302 -0.37143,-0.60098 -3.30881,-1.09269 -6.52752,-1.09269 -4.85092,0 -6.31764,0.46544 -8.57255,2.72034 -2.1095,2.10952 -2.56454,3.36696 -2.02646,5.6 1.47053,6.10285 9.35909,7.68984 13.89514,2.79537 z m -226.42468,4.68429 c -0.88248,-0.88247 -1.29334,-5.75862 -1.29334,-15.3494 0,-11.61334 0.29812,-14.30346 1.71543,-15.47973 1.45488,-1.20743 1.932,-1.1275 3.14129,0.52631 1.37214,1.87652 1.61106,1.86032 6.34192,-0.42985 4.50908,-2.18282 5.24245,-2.25708 8.85871,-0.89711 6.07576,2.28491 7.67233,6.50813 7.67433,20.30016 0.002,11.54794 -0.79398,13.96769 -3.7784,11.49085 -1.18573,-0.98407 -1.55328,-4.03471 -1.55328,-12.89183 0,-10.18051 -0.26149,-11.86422 -2.13333,-13.73606 -2.88967,-2.88967 -7.75276,-2.70217 -11.40719,0.43979 -2.87555,2.47231 -3.01371,3.04362 -3.52614,14.58175 -0.52321,11.78064 -1.35319,14.13194 -4.04,11.44512 z m 133.60904,-0.0293 c -0.31096,-0.81037 -0.43122,-8.17028 -0.26722,-16.35537 0.24813,-12.38478 0.56665,-14.88196 1.89817,-14.88196 1.35071,0 1.6,2.479 1.6,15.91111 0,11.77716 -0.34627,16.02653 -1.33277,16.35536 -0.73302,0.24434 -1.5872,-0.21876 -1.89818,-1.02914 z m 16.79095,0.0293 c -0.88248,-0.88247 -1.29334,-5.75862 -1.29334,-15.3494 0,-11.61334 0.29812,-14.30346 1.71543,-15.47973 1.4504,-1.20372 1.92176,-1.1415 3.05093,0.40273 1.66146,2.27219 2.55514,2.28843 4.98379,0.0906 1.05496,-0.95474 3.83033,-1.78602 6.1675,-1.8473 3.33129,-0.0874 4.95149,0.56125 7.4992,3.00211 l 3.24982,3.11352 3.13256,-3.00119 c 4.72107,-4.52306 10.95084,-4.41169 15.13444,0.27057 l 3.13114,3.50435 -0.29907,13.01358 c -0.24644,10.72355 -0.58062,13.01353 -1.89907,13.01353 -1.30012,0 -1.69996,-2.32856 -2.13334,-12.42376 -0.43936,-10.23457 -0.89139,-12.81899 -2.56532,-14.66667 -2.69212,-2.97155 -7.27678,-2.84983 -10.92717,0.2901 -2.81434,2.42079 -2.97054,3.07051 -3.52615,14.66667 -0.4703,9.81599 -0.88698,12.13366 -2.18135,12.13366 -1.29873,0 -1.70598,-2.34501 -2.16281,-12.45392 -0.45934,-10.16434 -0.93095,-12.86071 -2.56532,-14.66666 -2.86066,-3.16099 -8.10904,-2.91229 -11.35261,0.53796 -2.33039,2.4789 -2.63863,3.91984 -3.11926,14.58175 -0.52319,11.60607 -1.36202,13.94552 -4.04,11.26754 z m -16.87356,-39.71129 c -0.88286,-2.3007 0.34553,-5.16694 1.98079,-4.62185 0.73302,0.24434 1.33277,1.56426 1.33277,2.93314 0,2.92356 -2.3752,4.13404 -3.31356,1.68871 z"
       id="path89"
       inkscape:connector-curvature="0" />
    <path
       style="fill:#2e2e2e;stroke-width:1.0666666"
       d="m 419.41331,329.38665 c -0.704,-0.704 -1.28,-1.93854 -1.28,-2.74343 0,-1.14226 1.22897,-1.31137 5.6,-0.7706 7.42495,0.91858 11.1588,-0.60863 13.15219,-5.37948 2.04609,-4.89697 1.16155,-6.25036 -2.75976,-4.22258 -8.99159,4.64973 -18.57037,-1.18184 -19.27928,-11.73725 -0.67568,-10.06057 -0.0993,-12.33147 4.22802,-16.65882 4.67721,-4.67721 9.43077,-5.45155 15.18842,-2.47416 2.49839,1.29196 3.56333,1.38511 4.73345,0.414 0.83039,-0.68915 2.2359,-0.97438 3.12338,-0.63382 1.34611,0.51655 1.6133,3.40953 1.61192,17.45267 -0.002,19.27013 -1.05556,22.96327 -7.46501,26.16515 -4.31194,2.15404 -14.91739,2.52426 -16.85333,0.58832 z m 15.23112,-18.33416 c 4.81145,-4.81144 4.81145,-15.69357 0,-20.50502 -3.45314,-3.45314 -7.43813,-3.25124 -11.25984,0.57046 -2.7706,2.7706 -3.11795,3.84921 -3.11795,9.68205 0,5.83284 0.34735,6.91146 3.11795,9.68205 3.82171,3.82171 7.8067,4.0236 11.25984,0.57046 z m -223.79999,17.83638 c -1.68375,-1.68374 -0.30556,-2.14758 6.10452,-2.05451 7.81186,0.11342 10.44512,-1.49175 12.45934,-7.59489 1.68413,-5.10299 0.0116,-6.78071 -4.25002,-4.26329 -5.08415,3.00328 -10.40601,2.38942 -14.46379,-1.66836 -9.23132,-9.23133 -4.07329,-28.50784 7.62815,-28.50784 2.27481,0 5.26941,0.79387 6.65468,1.76415 1.99039,1.39412 2.93206,1.506 4.48954,0.53334 1.08396,-0.67695 2.45736,-1.23082 3.05198,-1.23082 0.68402,0 1.08115,6.08578 1.08115,16.56759 0,19.41143 -1.00361,23.15689 -6.86069,25.60413 -3.78245,1.5804 -14.58684,2.15853 -15.89486,0.8505 z m 15.49005,-17.07095 c 4.48712,-4.06078 4.92878,-15.74338 0.79391,-21.00001 -4.09211,-5.20227 -12.38496,-4.3722 -15.44538,1.54601 -1.92105,3.71489 -1.95631,13.43272 -0.0611,16.85199 2.98011,5.37679 10.22978,6.65893 14.71262,2.60201 z m -166.592551,4.79323 c -8.089319,-4.18333 -12.494746,-13.42148 -11.41717,-23.94173 1.410639,-13.77189 10.598737,-21.71576 23.562072,-20.37137 6.37266,0.6609 10.940223,2.52488 11.822776,4.82478 1.166007,3.03856 -1.164556,3.47265 -6.343843,1.18161 -8.506825,-3.76297 -16.625984,-1.5057 -20.522406,5.70559 -2.577109,4.76958 -2.577109,18.14366 0,22.91324 3.896422,7.21129 12.015581,9.46856 20.522406,5.70559 5.179287,-2.29104 7.50985,-1.85695 6.343843,1.18161 -0.951409,2.47933 -5.672227,4.24954 -12.776288,4.79084 -5.236171,0.39898 -7.271305,0.037 -11.19139,-1.99016 z m 401.378861,0.17223 c -8.65733,-4.41852 -11.36897,-16.86999 -5.6789,-26.07671 6.05362,-9.79496 21.27488,-9.05536 25.8358,1.25535 1.13106,2.55695 1.90628,5.95152 1.72271,7.54349 l -0.33377,2.89447 -11.51418,0.30323 c -12.61808,0.33231 -14.07383,1.13646 -11.33194,6.25973 2.75401,5.14592 9.72871,7.00483 16.90109,4.50452 2.55297,-0.88996 3.75117,-0.888 4.6468,0.007 2.29188,2.29189 -1.74482,4.58566 -8.98681,5.10658 -5.48177,0.3943 -7.64017,0.0496 -11.2608,-1.79828 z m 16.15719,-19.09388 c 1.0457,-1.692 -1.3355,-6.30328 -4.23649,-8.20408 -3.66333,-2.4003 -9.61379,-0.99489 -12.55207,2.96461 -3.63004,4.89171 -1.9931,6.21662 7.68078,6.21662 4.67712,0 8.77562,-0.43972 9.10778,-0.97715 z M 93.306763,316.58206 c -0.304395,-0.79325 -0.422944,-11.02872 -0.263441,-22.7455 0.279009,-20.49547 0.370897,-21.30324 2.423339,-21.30324 1.860159,0 2.17498,0.81952 2.458567,6.4 0.178879,3.52 0.723727,6.80084 1.210772,7.29077 0.487046,0.48992 2.35685,0.12992 4.15513,-0.8 5.37122,-2.77757 9.49741,-2.18223 13.64895,1.96931 l 3.66008,3.66009 -0.30008,13.13991 c -0.28156,12.32878 -0.43178,13.13991 -2.43342,13.13991 -1.98173,0 -2.17123,-0.88888 -2.66667,-12.50844 -0.4683,-10.98326 -0.81382,-12.78835 -2.83369,-14.80407 -1.86215,-1.85831 -3.03209,-2.15835 -6.14141,-1.57504 -5.907,1.10816 -7.36448,4.28914 -8.045012,17.55845 -0.495196,9.65551 -0.852969,11.35889 -2.449776,11.66345 -1.028441,0.19616 -2.118944,-0.29236 -2.423339,-1.0856 z m 41.589527,0.26963 c -4.4316,-1.79631 -6.22726,-6.52216 -4.64944,-12.23654 1.23404,-4.46933 6.79075,-7.01517 15.31178,-7.01517 6.3023,0 7.51552,-0.89997 6.52633,-4.84122 -1.28593,-5.12352 -8.42962,-6.82826 -17.4183,-4.15663 -1.76094,0.52339 -2.4,0.2746 -2.4,-0.93432 0,-2.10723 10.45848,-3.57123 15.80775,-2.2128 6.42396,1.63134 8.13715,5.27406 8.55926,18.19933 0.39226,12.01166 -0.70249,15.58614 -3.57996,11.68894 -1.42718,-1.93295 -1.57409,-1.9253 -5.12076,0.26666 -3.72619,2.3029 -9.14528,2.81908 -13.03666,1.24175 z m 12.20643,-2.66807 c 3.47511,-1.79705 5.7454,-6.50092 5.24586,-10.86898 -0.34351,-3.00359 -0.44574,-3.04649 -7.01741,-2.9447 -7.97532,0.12353 -10.93118,2.1384 -10.93118,7.45128 0,2.50047 0.79722,4.11768 2.81052,5.70134 3.31633,2.60863 5.80448,2.7749 9.89221,0.66106 z m 104.6306,1.35405 c -9.10161,-6.12785 -9.98835,-19.84929 -1.77228,-27.42426 3.68552,-3.39793 12.29942,-4.34911 16.20586,-1.78951 3.76371,2.46608 6.89098,7.92681 6.89576,12.04115 l 0.004,3.43173 -12,0.3016 -12,0.3016 0.16492,3.53692 c 0.33272,7.13568 7.94153,11.09722 16.95494,8.82762 5.29416,-1.33308 7.0423,-0.90004 4.92279,1.21947 -0.70499,0.70499 -4.51299,1.45852 -8.46223,1.67451 -6.1633,0.33708 -7.70925,0.0367 -10.91375,-2.12083 z m 16.85694,-19.66162 c 0.46814,-4.80867 -5.05662,-9.40583 -10.28422,-8.55751 -4.33478,0.70344 -8.25032,4.05378 -9.21099,7.88141 -0.97351,3.87873 0.79173,4.58773 10.63827,4.27289 l 8.53333,-0.27286 z m 113.02675,19.88985 c -4.86982,-3.8306 -4.57127,-12.74653 0.53535,-15.98776 1.30953,-0.83117 5.74095,-1.78127 9.84762,-2.11135 6.64807,-0.53435 7.50309,-0.85607 7.79892,-2.93455 0.40201,-2.82446 -2.94236,-6.4097 -6.90734,-7.40484 -1.59281,-0.39978 -4.84081,-0.20777 -7.21776,0.42667 -4.68769,1.25122 -5.97414,0.91957 -4.01859,-1.03599 1.84191,-1.84191 13.04801,-2.26667 16.21143,-0.61449 4.65822,2.43288 6.39649,7.64003 6.39835,19.16677 0.002,10.65467 -1.14794,13.64349 -3.83464,9.9692 -1.30935,-1.79064 -1.56454,-1.77186 -5.03075,0.37038 -4.58677,2.83478 -10.29491,2.89937 -13.78259,0.15596 z m 12.95236,-1.58228 c 3.47511,-1.79705 5.7454,-6.50092 5.24586,-10.86898 -0.34351,-3.00359 -0.44574,-3.04649 -7.01741,-2.9447 -7.97532,0.12353 -10.93118,2.1384 -10.93118,7.45128 0,2.50047 0.79722,4.11768 2.81052,5.70134 3.31633,2.60863 5.80448,2.7749 9.89221,0.66106 z M 169.59999,301.33331 c 0,-16.31397 0.57398,-17.9799 4.58203,-13.29885 1.52883,1.78554 1.63223,2.58494 0.5864,4.53333 -0.69835,1.30103 -1.48986,7.28553 -1.75891,13.29886 -0.37152,8.30388 -0.84034,10.93333 -1.94934,10.93333 -1.16866,0 -1.46018,-3.08786 -1.46018,-15.46667 z m 22.4,4.31686 c 0,-6.1324 -0.54226,-12.33995 -1.20504,-13.79457 -1.70861,-3.75002 -6.33379,-5.46354 -10.76211,-3.98714 l -3.49952,1.16675 2.51817,-2.11762 c 3.80166,-3.19694 9.25166,-2.77856 13.03055,1.00034 3.10192,3.10192 3.11795,3.18416 3.11795,16 0,10.7396 -0.2661,12.88205 -1.6,12.88205 -1.32018,0 -1.6,-1.94998 -1.6,-11.14981 z m 111.43378,9.84877 c -0.31203,-0.81315 -0.43228,-7.69306 -0.26723,-15.28871 0.24841,-11.43128 0.57572,-13.81025 1.90011,-13.81025 1.34558,0 1.6,2.36049 1.6,14.84445 0,10.92407 -0.35198,14.96177 -1.33277,15.28869 -0.73302,0.24434 -1.58807,-0.22103 -1.90011,-1.03418 z m 16.56621,-14.16563 c 0,-16.31397 0.57398,-17.9799 4.58203,-13.29885 1.52883,1.78554 1.63223,2.58494 0.5864,4.53333 -0.69835,1.30103 -1.48986,7.28553 -1.7589,13.29886 -0.37152,8.30388 -0.84035,10.93333 -1.94935,10.93333 -1.16866,0 -1.46018,-3.08786 -1.46018,-15.46667 z m 22.06667,14.77779 c -0.40334,-0.40334 -0.73334,-5.95516 -0.73334,-12.33738 0,-10.89812 -0.15927,-11.76332 -2.61818,-14.22222 -2.81899,-2.81899 -5.75058,-3.28153 -9.45194,-1.49129 -2.19176,1.06009 -2.1806,0.99686 0.18829,-1.06667 3.78176,-3.29426 8.52121,-2.82939 12.98797,1.27394 l 3.77278,3.46584 -0.57278,12.18174 c -0.52735,11.21513 -1.43962,14.32922 -3.5728,12.19604 z m 21.33333,0 c -0.40334,-0.40334 -0.73334,-5.95516 -0.73334,-12.33738 0,-10.89812 -0.15927,-11.76332 -2.61818,-14.22222 -2.88685,-2.88686 -4.31836,-3.1389 -8.77904,-1.5457 l -3.00277,1.07249 2.51816,-2.13916 c 3.51084,-2.9824 9.18256,-2.80206 12.37821,0.39359 3.03605,3.03605 4.02625,8.67257 3.56885,20.31499 -0.30358,7.72709 -1.367,10.42828 -3.33189,8.46339 z m -59.99077,-39.93739 c -1.09922,-1.77858 1.37302,-3.81814 2.8445,-2.34667 1.23085,1.23085 0.4605,3.50628 -1.18706,3.50628 -0.51742,0 -1.26327,-0.52183 -1.65744,-1.15961 z"
       id="path87"
       inkscape:connector-curvature="0" />
    <path
       style="fill:#0d0d0d;stroke-width:1.0666666"
       d="m 214.66665,328.77153 c -6.08418,-0.6553 -3.71907,-1.85225 2.91931,-1.47742 5.9102,0.33372 6.63099,0.11968 9.60194,-2.85128 2.52117,-2.52117 3.21209,-4.14748 3.21209,-7.5608 0,-3.18695 -0.43477,-4.34872 -1.6274,-4.34872 -1.45874,0 -1.45874,-0.32612 0,-3.14702 0.89507,-1.73087 1.6274,-5.5947 1.6274,-8.58631 0,-2.9916 -0.73233,-6.85543 -1.6274,-8.5863 -1.37738,-2.66358 -1.39492,-3.14703 -0.11412,-3.14703 0.8323,0 1.82036,-0.80027 2.19569,-1.77837 0.4937,-1.28653 1.00489,-1.4559 1.84838,-0.61241 0.78293,0.78293 1.01068,6.3603 0.69332,16.97836 -0.6148,20.56875 -2.14655,23.89506 -11.52921,25.0365 -2.05333,0.2498 -5.29333,0.28616 -7.2,0.0808 z m 205.24444,0.11734 c -1.68374,-1.68374 -0.30556,-2.14758 6.10452,-2.05451 7.81186,0.11342 10.44512,-1.49175 12.45934,-7.59489 1.68414,-5.10299 0.0116,-6.78071 -4.25002,-4.26329 -5.08415,3.00328 -10.406,2.38942 -14.46378,-1.66836 -9.23133,-9.23133 -4.07329,-28.50784 7.62815,-28.50784 2.2748,0 5.2694,0.79387 6.65467,1.76415 1.99039,1.39412 2.93207,1.506 4.48954,0.53334 1.08397,-0.67695 2.45736,-1.23082 3.05199,-1.23082 0.68401,0 1.08114,6.08578 1.08114,16.56759 0,19.41143 -1.00361,23.15689 -6.86068,25.60413 -3.78246,1.5804 -14.58685,2.15853 -15.89487,0.8505 z m 14.09756,-15.96163 c 7.16893,-5.02133 6.98039,-19.65051 -0.31487,-24.43055 -4.11447,-2.6959 -9.75697,-1.31893 -12.40736,3.02784 -2.56427,4.20551 -2.7844,13.36504 -0.4306,17.91678 2.614,5.05491 8.63466,6.65057 13.15283,3.48593 z m -374.27532,2.5573 c -7.124584,-3.8112 -10.133333,-9.75483 -10.133333,-20.01789 0,-10.26306 3.008749,-16.20669 10.133333,-20.01789 4.035523,-2.15874 5.861731,-2.48753 11.466401,-2.06441 6.564899,0.4956 12.630052,3.13366 11.480595,4.99352 -0.323207,0.52297 -2.809172,-0.0319 -5.524369,-1.23291 -8.532053,-3.77413 -16.485993,-1.25437 -21.141925,6.69764 -1.604778,2.74084 -2.119298,5.56291 -2.119298,11.62405 0,6.06114 0.51452,8.88321 2.119298,11.62405 4.655932,7.95201 12.609872,10.47177 21.141925,6.69763 2.715197,-1.20105 5.201162,-1.75587 5.524369,-1.2329 1.149457,1.85986 -4.915696,4.49792 -11.480595,4.99352 -5.60467,0.42312 -7.430878,0.0943 -11.466401,-2.06441 z m 196.97322,1.23913 c -2.51387,-0.42062 -5.36737,-1.95885 -7.39489,-3.98637 -2.7776,-2.7776 -3.37387,-4.30247 -3.75777,-9.60981 -0.80096,-11.0731 4.05398,-17.26084 13.54294,-17.26084 7.93354,0 12.29061,3.9126 13.06624,11.73333 l 0.37025,3.73333 -12.04705,0.30204 c -13.46095,0.3375 -14.16429,0.76024 -11.57505,6.95715 2.48723,5.95279 5.81146,7.51885 14.62193,6.88847 4.11197,-0.29422 7.22379,-0.2824 6.91514,0.0262 -1.12093,1.12093 -9.74818,1.88462 -13.74174,1.21644 z m 12.94991,-20.30806 c 0.20879,-1.79909 -0.67402,-3.96944 -2.49482,-6.13333 -2.38811,-2.83812 -3.54821,-3.34896 -7.6052,-3.34896 -6.03252,0 -11.02312,4.32664 -11.02312,9.55657 v 3.32067 l 10.4,-0.30529 c 10.3269,-0.30314 10.40227,-0.32486 10.72314,-3.08966 z m 192.286,19.58272 c -4.95333,-2.52577 -7.66995,-6.53768 -8.31758,-12.28334 -1.14012,-10.11513 4.37093,-17.83748 13.25856,-18.57854 8.33859,-0.69527 13.79581,3.79514 14.9351,12.28922 l 0.59566,4.44098 h -11.90726 c -9.98319,0 -12.01421,0.27871 -12.56913,1.72481 -1.10138,2.87015 1.07508,7.12955 5.00958,9.80391 3.77224,2.56408 8.89686,2.77578 15.86205,0.65526 1.90776,-0.58081 2.42079,-0.40811 2.05425,0.69151 -1.09826,3.29478 -13.33065,4.10689 -18.92123,1.25619 z m 15.8165,-17.73527 c 1.68897,-2.03509 -0.0396,-6.18505 -3.81233,-9.15268 -2.29962,-1.80888 -3.89634,-2.22949 -6.74633,-1.77712 -5.80333,0.92114 -11.78775,8.79041 -8.88921,11.68894 1.43125,1.43126 18.17234,0.77778 19.44787,-0.75914 z M 93.866661,294.93332 c 0,-18.72593 0.22981,-21.86667 1.6,-21.86667 1.256296,0 1.6,1.47301 1.6,6.85714 0,4.52513 0.518953,7.3761 1.525955,8.3831 1.311666,1.31166 1.318241,2.10876 0.04682,5.67619 -0.813524,2.28263 -1.500204,8.35023 -1.525954,13.48357 -0.03794,7.56437 -0.350067,9.33333 -1.646817,9.33333 -1.37019,0 -1.6,-3.14074 -1.6,-21.86666 z m 22.399999,10.61369 c 0,-13.51256 -1.35156,-17.10359 -6.82367,-18.13016 -2.0249,-0.37988 -4.72474,-0.13956 -6.13068,0.54572 l -2.51232,1.22454 2.51817,-2.19357 c 3.76941,-3.2835 9.20851,-2.89764 13.03055,0.92439 3.10192,3.10192 3.11795,3.18416 3.11795,16 0,10.7396 -0.2661,12.88205 -1.6,12.88205 -1.32111,0 -1.6,-1.96144 -1.6,-11.25297 z m 17.03938,9.31203 c -1.80697,-1.46319 -2.39696,-3.06104 -2.39696,-6.49158 0,-6.73883 2.41571,-8.58787 13.23202,-10.12809 7.88909,-1.12339 8.96479,-1.54133 9.26343,-3.59912 0.2068,-1.42494 -0.75863,-3.42466 -2.48851,-5.15454 -2.65154,-2.65154 -3.28974,-2.79323 -10.3167,-2.29045 -4.36407,0.31225 -6.88701,0.15364 -6.04482,-0.38 0.79502,-0.50377 4.41873,-0.9233 8.05268,-0.93228 5.45838,-0.0135 7.12755,0.43087 9.6,2.55565 2.91168,2.50225 3.00253,2.9071 3.35126,14.93333 0.19716,6.79874 -0.0474,12.36135 -0.54341,12.36135 -0.49603,0 -1.53397,-1.01215 -2.30653,-2.24921 -1.09871,-1.75932 -1.13555,-2.89891 -0.16913,-5.23205 0.67954,-1.64057 1.07618,-4.10843 0.88141,-5.48413 -0.32624,-2.30435 -0.92095,-2.5261 -7.55388,-2.81666 -6.47851,-0.28381 -7.46691,-0.0482 -9.86666,2.35151 -1.46681,1.4668 -2.66691,3.824 -2.66691,5.23821 0,3.85588 3.78249,7.99433 7.7591,8.4893 3.03458,0.37771 2.91954,0.44844 -0.97427,0.59899 -2.88582,0.11159 -5.24543,-0.5016 -6.81212,-1.77023 z m 247.57136,-0.86958 c -2.83172,-3.59994 -2.88116,-9.31908 -0.10454,-12.09568 2.37982,-2.37981 4.27442,-2.95478 13.36047,-4.05454 5.52222,-0.6684 6.44634,-1.10056 6.73788,-3.1509 0.20921,-1.47139 -0.73182,-3.44593 -2.47124,-5.18536 -2.56623,-2.56623 -3.39608,-2.77174 -9.59771,-2.37685 -3.73372,0.23775 -6.55333,0.0516 -6.2658,-0.4136 0.28753,-0.46524 3.58768,-0.84588 7.33367,-0.84588 5.65952,0 7.31684,0.43479 9.80372,2.57198 2.91168,2.50225 3.00253,2.9071 3.35127,14.93333 0.19715,6.79874 -0.0474,12.36135 -0.54342,12.36135 -0.49603,0 -1.53397,-1.01215 -2.30652,-2.24921 -1.09871,-1.75932 -1.13556,-2.89891 -0.16914,-5.23205 0.67955,-1.64057 1.07619,-4.10843 0.88141,-5.48413 -0.32624,-2.30435 -0.92095,-2.5261 -7.55387,-2.81666 -6.47852,-0.28381 -7.46692,-0.0482 -9.86667,2.35151 -1.46681,1.4668 -2.66691,3.824 -2.66691,5.23821 0,3.85588 3.78249,7.99433 7.7591,8.4893 3.00549,0.3741 2.87706,0.44989 -1.01502,0.59899 -3.65539,0.14004 -4.85308,-0.33421 -6.66666,-2.63981 z M 170.66666,301.33331 c 0,-7.91999 0.36453,-14.39999 0.81008,-14.39999 1.86513,0 3.50506,4.31632 2.4143,6.35444 -0.60007,1.12126 -1.09105,6.6302 -1.09105,12.2421 0,6.09119 -0.4299,10.20345 -1.06667,10.20345 -0.65843,0 -1.06666,-5.51111 -1.06666,-14.4 z m 22.19064,2.66776 c -0.42858,-10.40176 -0.76141,-12.02817 -2.93496,-14.34181 -1.34837,-1.43527 -3.7125,-2.80384 -5.25363,-3.04127 -2.21047,-0.34056 -1.99681,-0.46544 1.01201,-0.59152 2.84842,-0.11936 4.46749,0.53572 6.39495,2.5874 2.36004,2.51215 2.61398,3.78996 2.96772,14.93333 0.23827,7.50603 -0.0144,12.18611 -0.65793,12.18611 -0.5893,0 -1.25551,-5.11477 -1.52816,-11.73224 z m 17.74225,8.46221 c -2.92361,-3.05159 -3.1329,-3.83077 -3.1329,-11.6633 0,-7.83253 0.20929,-8.61171 3.1329,-11.66329 2.65825,-2.77461 3.87029,-3.24982 8,-3.13653 l 4.8671,0.13351 -4.26666,0.70388 c -5.52688,0.91179 -6.32998,1.46987 -8.40363,5.83975 -3.0112,6.34565 -1.35762,17.97848 2.93333,20.63583 0.662,0.40997 3.12363,1.06215 5.4703,1.44928 l 4.26666,0.70389 -4.8671,0.1335 c -4.12971,0.11329 -5.34175,-0.36192 -8,-3.13652 z m 93.40043,-11.12997 c 0,-8.88888 0.40824,-14.39999 1.06667,-14.39999 0.65843,0 1.06666,5.51111 1.06666,14.39999 0,8.88889 -0.40823,14.4 -1.06666,14.4 -0.65843,0 -1.06667,-5.51111 -1.06667,-14.4 z m 17.06667,0 c 0,-7.91999 0.36453,-14.39999 0.81008,-14.39999 1.86513,0 3.50506,4.31632 2.4143,6.35444 -0.60007,1.12126 -1.09105,6.6302 -1.09105,12.2421 0,6.09119 -0.4299,10.20345 -1.06667,10.20345 -0.65843,0 -1.06666,-5.51111 -1.06666,-14.4 z m 21.33168,4 c -0.002,-12.50104 -1.86075,-17.47271 -6.93168,-18.54046 l -3.2,-0.6738 3.42988,-0.1262 c 2.41561,-0.0889 4.31638,0.74124 6.42758,2.80713 2.99252,2.92829 2.99697,2.95399 2.58544,14.93333 -0.22673,6.6 -0.83914,12 -1.3609,12 -0.52177,0 -0.94942,-4.68 -0.95032,-10.4 z m 21.1601,-1.75793 c -0.3856,-13.07881 -1.76391,-16.54188 -6.65711,-16.72628 -1.22906,-0.0463 -1.61408,-0.33318 -0.85557,-0.63747 2.67255,-1.07218 6.60043,0.78803 8.20149,3.88417 1.81276,3.50548 2.36915,25.63751 0.64452,25.63751 -0.53618,0 -1.13618,-5.47107 -1.33333,-12.15793 z m -59.55845,-28.3754 c 0,-0.58666 0.48,-1.06666 1.06667,-1.06666 0.58666,0 1.06666,0.48 1.06666,1.06666 0,0.58667 -0.48,1.06667 -1.06666,1.06667 -0.58667,0 -1.06667,-0.48 -1.06667,-1.06667 z"
       id="path85"
       inkscape:connector-curvature="0" />
  </g>
</svg>
